# xmcd
#
# Track frame offsets:
#	150
#	14836
#	28170
#	41824
#	59241
#	74514
#	88634
#	104111
#	118982
#	134620
#	146693
#	159260
#	175120
#	186033
#	200331
#	212906
#	234922
#	255128
#	276009
#	289701
#	302766
#	315673
#	330391
#	339697
#
# Disc length: 4712 seconds
#
# Revision: 0
# Processed by: cddbd v1.5.2PL0 Copyright (c) Steve Scherf et al.
# Submitted via: EZCDAudioConverter 1.3.4.1
#
DISCID=75126618
DTITLE=Dansemusikk 2-11-2011.****
DYEAR=1900
DGENRE=
TTITLE0=Steve Lucky - She's Tough B B (fin)
TTITLE1=Ingrid Lucia - Mind Your Own Business J B (fin)
TTITLE2=Ingrid Lucia - Long Gone Lonesome Blues S B (fin)
TTITLE3=Mighty Blue Kings - No Blow,No Show J B (fin)
TTITLE4=Mighty Blue Kings - Big Mamou S B (fin)
TTITLE5=Mighty Blue Kings - Meet Me Uptown J B (fin)
TTITLE6=Casey MacGill and The Spirits Of Rhythm - Whadaya Want J B
TTITLE7=Dana Gillepie - Mainline Baby J B (fin)
TTITLE8=Dana Gillepie - Going,Going,Gone R B (fin)
TTITLE9=Big Boy Bloater - Man Or Monkey? R B 
TTITLE10=The Dirty Robbers - It Hurts To Be In Love J B (fin)
TTITLE11=The Dirty Robbers - Mary Lou R S (fin)
TTITLE12=Sue Moreno And The Flaming Stars - Blues Stay Away From Me S B (fin)
TTITLE13=Shakin' Stevens - Green Door R S (fin)
TTITLE14=Johnny Nocturne Band - It's News To You Baby R B(superb)
TTITLE15=Eric Clapton - Hey Hey B B (fin)
TTITLE16=Champion Jack Dupree - Jit-A-Bug Jump J B
TTITLE17=Clarence "Gatemouth" Brown - Going Back To Louisiana S B (fin)
TTITLE18=Marcia Ball - It hurts to be in love S B (fin)
TTITLE19=Dana Gillespie - Heartbeat Boogie J B (fin)
TTITLE20=Midnight Howlers - We Love To Boogie R A B (fin)
TTITLE21=Refreshments  - Buzz,Buzz,Buzz R R 
TTITLE22=Hank Sundown - I Left My Heart In Woverhampton R S (fin)
TTITLE23=Snakebite - Almost Grown R S (fin)
EXTD=
EXTT0=
EXTT1=
EXTT2=
EXTT3=
EXTT4=
EXTT5=
EXTT6=
EXTT7=
EXTT8=
EXTT9=
EXTT10=
EXTT11=
EXTT12=
EXTT13=
EXTT14=
EXTT15=
EXTT16=
EXTT17=
EXTT18=
EXTT19=
EXTT20=
EXTT21=
EXTT22=
EXTT23=
PLAYORDER=
